<?xml version="1.0" encoding="UTF-8" standalone="no"?>
<svg
   t="1781337968370"
   class="icon"
   viewBox="0 0 2002.9673 317.18546"
   version="1.1"
   p-id="4326"
   width="500.74182"
   height="79.296364"
   id="svg1"
   sodipodi:docname="deepseek.svg"
   xmlns:inkscape="http://www.inkscape.org/namespaces/inkscape"
   xmlns:sodipodi="http://sodipodi.sourceforge.net/DTD/sodipodi-0.dtd"
   xmlns="http://www.w3.org/2000/svg"
   xmlns:svg="http://www.w3.org/2000/svg">
  <defs
     id="defs1" />
  <sodipodi:namedview
     id="namedview1"
     pagecolor="#ffffff"
     bordercolor="#666666"
     borderopacity="1.0"
     inkscape:showpageshadow="2"
     inkscape:pageopacity="0.0"
     inkscape:pagecheckerboard="0"
     inkscape:deskcolor="#d1d1d1">
    <inkscape:page
       x="0"
       y="0"
       width="2002.9673"
       height="317.18546"
       id="page2"
       margin="0"
       bleed="0" />
  </sodipodi:namedview>
  <path
     d="m 417.82704,26.629915 c -4.46018,-2.23988 -6.40245,2.02254 -9.00063,4.1841 -0.89086,0.71269 -1.66425,1.60551 -2.41805,2.45721 -6.54342,7.13668 -14.17545,11.79656 -24.14721,11.24051 -14.59249,-0.83213 -27.043,3.84538 -38.06618,15.2249 -2.32015,-14.03644 -10.11273,-22.40073 -21.94845,-27.79289 -6.20665,-2.79593 -12.45051,-5.5899 -16.79125,-11.67712 -3.01522,-4.32117 -3.84734,-9.15726 -5.35299,-13.8954698 -0.97114,-2.87425 -1.92269,-5.80918992 -5.15524,-6.30454992 -3.5282,-0.55409 -4.8968,2.45916992 -6.28498,4.95553992 -5.492,10.2889398 -7.63203,21.6077698 -7.4147,33.0675598 0.47578,25.77034 11.14065,46.3267 32.31572,60.91723 2.42001,1.683835 3.05438,3.369615 2.281,5.809195 -1.4293,5.03386 -3.17186,9.91107 -4.67947,14.94688 -0.95155,3.21101 -2.37889,3.92566 -5.77003,2.5179 a 97.305453,97.305453 0 0 1 -30.5712,-21.1731 C 259.75511,86.241205 246.13572,69.806295 229.14476,56.960285 a 203.16121,203.16121 0 0 0 -12.09417,-8.46416 c -17.36688,-17.18675 2.26142,-31.3015 6.80187,-32.98728 4.7382,-1.74257 1.64466,-7.7299298 -13.70163,-7.6711898 -15.34434,0.0587 -29.38077,5.3138298 -47.28413,12.2919098 -2.653,1.02792 -5.38432,1.84438 -8.16851,2.43763 a 165.56298,165.56298 0 0 0 -50.73401,-1.80521 c -33.167417,3.76706 -59.656317,19.76535 -79.126017,47.08246 -23.39341,32.867855 -28.905,70.176305 -22.16383,109.070685 7.07794,41.0344 27.5971,74.97325 59.11985,101.53655 32.67402,27.51486 70.323147,41.01483 113.266537,38.4186 26.0699,-1.52719 55.11587,-5.09454 87.8682,-33.40237 8.26641,4.20173 16.93027,5.86793 31.32501,7.13668 11.06233,1.04945 21.72916,-0.55606 29.99556,-2.30058 12.92629,-2.79397 12.03543,-15.02715 7.35596,-17.26703 -37.90562,-18.03845 -29.58048,-10.70403 -37.15377,-16.6307 19.26999,-23.27397 48.29638,-47.4388 59.6759,-125.76208 0.89086,-6.22623 0.11747,-10.13035 0,-15.16616 -0.0783,-3.07396 0.59521,-4.26243 4.04313,-4.61877 a 72.369193,72.369193 0 0 0 27.18202,-8.52485 c 24.56425,-13.678135 34.49881,-36.176765 36.81701,-63.157115 0.35634,-4.12341 -0.0587,-8.38583 -4.3427,-10.54739 z M 203.74642,269.35316 c -36.73673,-29.47867 -54.55981,-39.19199 -61.9334,-38.77495 -6.88018,0.41509 -5.63102,8.46416 -4.12536,13.69772 1.58592,5.15328 3.64959,8.7226 6.54341,13.28263 1.98339,2.99172 3.36961,7.47344 -2.00296,10.82346 -11.83572,7.47344 -32.41558,-2.5179 -33.36713,-3.01522 C 84.911523,250.99556 64.887723,231.98401 50.771013,205.99634 a 184.1477,184.1477 0 0 1 -22.81974,-80.50441 c -0.35634,-6.93892 1.64467,-9.37851 8.3878,-10.64529 a 81.187732,81.187732 0 0 1 26.90202,-0.69507 c 37.512077,5.59186 69.451867,22.71988 96.216837,49.8177 15.26602,15.46377 26.82371,33.89968 38.73971,51.93814 12.66783,19.12902 26.28919,37.36914 43.61691,52.31602 6.14596,5.23356 11.02318,9.21796 15.70264,12.15095 -14.11671,1.6055 -37.65109,1.9638 -53.74923,-11.04276 l -0.0196,0.0196 z m 17.62729,-115.63173 c 0,-3.07395 2.39847,-5.51158 5.43132,-5.51158 0.68723,0 1.3079,0.1116 1.86395,0.33676 a 5.47047,5.47047 0 0 1 3.50862,5.17482 5.450891,5.450891 0 0 1 -5.43131,5.52921 5.392153,5.392153 0 0 1 -5.37258,-5.52921 z m 54.69883,28.66417 c -3.50862,1.46845 -7.01919,2.73524 -10.3888,2.87425 a 21.611686,21.611686 0 0 1 -14.03644,-4.55807 c -4.81652,-4.10383 -8.26835,-6.42203 -9.71527,-13.6194 a 31.655893,31.655893 0 0 1 0.27803,-10.54739 c 1.24916,-5.86793 -0.13706,-9.63304 -4.18411,-13.06334 -3.30891,-2.79398 -7.5126,-3.56736 -12.11179,-3.56736 a 9.676115,9.676115 0 0 1 -4.48171,-1.38818 4.57961,4.57961 0 0 1 -1.98143,-6.42203 c 0.47578,-0.99267 2.81355,-3.37156 3.36961,-3.76706 6.26539,-3.64764 13.48234,-2.45917 20.16281,0.25649 6.18708,2.5786 10.86458,7.33638 17.60575,14.05601 6.88019,8.10585 8.12739,10.32811 12.03347,16.41337 3.11312,4.75778 5.94821,9.63304 7.85132,15.2249 1.19042,3.50862 -0.33676,6.36329 -4.40144,8.12739 z m 869.42496,65.1405 h -22.0464 v -34.15618 h 22.0464 c 13.6194,0 27.4189,-3.36764 36.3588,-12.82447 8.9439,-9.4764 12.2136,-24.06694 12.2136,-38.49888 0,-14.4104 -3.2697,-28.94219 -12.2116,-38.39902 -8.9223,-9.4764 -22.7414,-12.82447 -36.3608,-12.82447 -13.7193,0 -27.4385,3.36765 -36.3804,12.82447 -9.0202,9.47641 -12.2136,23.98667 -12.2136,38.39902 V 302.4775 h -38.6594 V 76.645365 h 38.6594 v 14.33208 h 7.0779 c 0.7147,-0.791 1.5076,-1.58593 2.3789,-2.37693 9.6566,-8.86162 24.4468,-11.95515 39.1372,-11.95515 22.7394,0 45.659,5.6506 60.6079,21.41002 14.8685,15.761375 20.2822,40.004525 20.2822,64.071465 0,23.9847 -5.4137,48.22981 -20.2842,63.96965 -14.9469,15.85928 -37.8665,21.41002 -60.6059,21.41002 z M 556.70728,82.573985 h 22.02677 v 34.156185 h -22.02677 c -13.63897,0 -27.4385,3.36765 -36.37843,12.92433 -8.92231,9.45682 -12.2136,23.98666 -12.2136,38.39902 0,14.4104 3.26975,28.94219 12.21164,38.39902 8.94189,9.4764 22.74142,12.92433 36.38235,12.92433 13.71925,0 27.4385,-3.44988 36.37843,-12.92433 9.02216,-9.45683 12.2136,-23.98666 12.2136,-38.39902 V 27.700905 h 38.66134 V 253.55262 h -38.66134 v -14.42998 h -7.07794 a 15.324757,15.324757 0 0 1 -2.39847,2.37694 c -9.65457,8.86161 -24.42524,12.05304 -39.11562,12.05304 -22.74142,0 -45.65905,-5.66822 -60.62942,-21.50791 -14.86855,-15.76138 -20.26071,-39.92621 -20.26071,-63.99119 0,-24.06694 5.39215,-48.23177 20.26071,-64.07147 14.97037,-15.739835 37.86842,-21.408065 60.62746,-21.408065 z m 281.42963,82.466275 v 13.71729 h -103.0148 v -27.43459 h 68.3202 c -1.5859,-9.99134 -5.2159,-19.28957 -11.5988,-26.0092 -9.3785,-9.83275 -23.6127,-13.36095 -37.8664,-13.36095 -14.1559,0 -28.5115,3.5282 -37.7882,13.36095 -9.3002,9.71331 -12.6698,24.77962 -12.6698,39.7265 0,14.96645 3.3696,29.9936 12.6679,39.82439 9.2806,9.81513 23.6322,13.28264 37.7881,13.28264 14.2342,0 28.4899,-3.46751 37.8665,-13.28068 1.2824,-1.42929 2.467,-2.9369 3.5497,-4.52087 h 38.2248 c -3.2698,11.8553 -8.6639,22.58086 -16.6347,30.98432 -15.5812,16.35463 -39.374,22.20298 -63.0063,22.20298 -23.6323,0 -47.4408,-5.84835 -62.928,-22.20298 -15.5813,-16.37421 -21.1536,-41.4299 -21.1536,-66.2898 0,-24.8599 5.5723,-49.89602 21.1555,-66.270235 15.4834,-16.29589 39.2958,-22.12466 62.9281,-22.12466 23.6322,-1e-5 47.4211,5.82877 63.0063,22.12466 15.5832,16.374215 21.1535,41.410335 21.1535,66.270235 z m 194.07449,0 v 13.71729 H 929.19661 v -27.43459 h 68.4004 c -1.5859,-9.99134 -5.214,-19.28957 -11.6791,-26.0092 -9.2786,-9.83275 -23.5324,-13.36095 -37.7881,-13.36095 -14.1559,0 -28.488,3.5282 -37.7881,13.36095 -9.2767,9.71331 -12.6483,24.77962 -12.6483,39.7265 0,14.96645 3.3716,29.9936 12.6483,39.82439 9.3001,9.81513 23.6322,13.28264 37.7881,13.28264 14.2753,0 28.5095,-3.46751 37.7881,-13.28068 1.3295,-1.42929 2.5786,-2.91536 3.6496,-4.52087 h 38.22279 c -3.3696,11.8553 -8.6834,22.58086 -16.6522,30.98432 -15.56559,16.35463 -39.37409,22.20298 -63.00629,22.20298 -23.6127,0 -47.4251,-5.84835 -63.0064,-22.20298 -15.4853,-16.37421 -21.0556,-41.4299 -21.0556,-66.2898 0,-24.8599 5.5703,-49.89602 21.0537,-66.270235 15.5851,-16.29589 39.3936,-22.12466 63.0063,-22.12466 23.6323,0 47.4447,5.82877 63.02589,22.12466 15.4677,16.374215 21.0557,41.410335 21.0557,66.270235 z m 304.2689,88.49278 c 23.6323,0 47.4232,-3.44988 62.9085,-13.08292 15.5812,-9.65457 21.1535,-24.44286 21.1535,-39.13324 0,-14.66885 -5.5723,-29.45714 -21.1555,-39.11171 -15.4637,-9.63304 -39.2742,-13.08292 -62.9065,-13.08292 h 0.793 c -10.1108,0 -20.2627,-1.32944 -26.8237,-5.15525 a 16.652237,16.652237 0 0 1 -9.0222,-15.12505 c 0,-5.74849 2.3789,-11.39909 9.0222,-15.20532 6.5414,-3.72595 16.7325,-5.05539 26.8237,-5.05539 10.0912,0 20.2627,1.32944 26.902,5.05539 a 16.652237,16.652237 0 0 1 8.9243,15.20532 h 39.3936 c 0,-14.66884 -5.0358,-29.457135 -19.033,-39.111705 -14.0776,-9.635 -35.5679,-13.08488 -56.9799,-13.08488 -21.4119,0 -42.9238,3.44988 -56.9994,13.08488 -14.0775,9.65262 -19.1133,24.421325 -19.1133,39.111705 0,14.69039 5.0358,29.47867 19.1133,39.11171 14.0776,9.65458 35.5679,13.10446 56.9994,13.10446 11.1407,0 23.276,1.32748 30.6104,5.05539 7.3364,3.70637 9.913,9.45683 9.913,15.20337 0,5.67018 -2.5766,11.41867 -9.913,15.14658 -7.3344,3.70637 -18.5769,5.11413 -29.7391,5.11413 -11.1406,0 -22.4027,-1.38818 -29.6392,-5.11413 -7.3344,-3.72791 -9.9913,-9.4764 -9.9913,-15.14658 h -45.3223 c 0,14.69038 5.5703,29.47867 21.0556,39.11366 15.5832,9.65262 39.2958,13.08293 63.0259,13.08293 z m 278.158,-88.49278 v 13.71729 H 1511.602 v -27.43459 h 68.42 c -1.5859,-9.99134 -5.214,-19.28957 -11.6987,-26.0092 -9.2786,-9.83275 -23.5324,-13.36095 -37.7685,-13.36095 -14.1559,0 -28.5076,3.5282 -37.7882,13.36095 -9.2982,9.71331 -12.6678,24.77962 -12.6678,39.7265 0,14.96645 3.3696,29.9936 12.6678,39.82439 9.2806,9.81513 23.6323,13.28264 37.7882,13.28264 14.2361,0 28.4899,-3.46751 37.7881,-13.28068 1.3314,-1.40384 2.5453,-2.91732 3.63,-4.52087 h 38.2228 c -3.3696,11.8553 -8.6638,22.58086 -16.6326,30.98432 -15.5852,16.35463 -39.3741,22.20298 -63.0064,22.20298 -23.6323,0 -47.4447,-5.84835 -63.0063,-22.20298 -15.5069,-16.37421 -21.0752,-41.4299 -21.0752,-66.2898 0,-24.8599 5.5703,-49.89602 21.0732,-66.270235 15.5656,-16.29589 39.3741,-22.12466 63.0064,-22.12466 23.6322,-1e-5 47.4251,5.82877 63.0063,22.12466 15.4873,16.374215 21.0556,41.410335 21.0556,66.270235 h 0.02 z m 194.1547,0 v 13.71729 h -103.0168 v -27.43459 h 68.4005 c -1.6642,-9.99134 -5.214,-19.28957 -11.6575,-26.0092 -9.3198,-9.83275 -23.6323,-13.36095 -37.8078,-13.36095 -14.1558,0 -28.4899,3.5282 -37.7881,13.36095 -9.3785,9.71331 -12.6483,24.77962 -12.6483,39.7265 0,14.96645 3.2698,29.9936 12.6483,39.82439 9.2982,9.81513 23.6323,13.28264 37.7881,13.28264 14.1755,0 28.5076,-3.46751 37.8078,-13.28068 a 47.434891,47.434891 0 0 0 3.6084,-4.52087 h 38.2444 c -3.3716,11.8553 -8.6835,22.58086 -16.7345,30.98432 -15.4833,16.35463 -39.2958,22.20298 -62.928,22.20298 -23.6127,0 -47.5211,-5.84835 -63.0064,-22.20298 -15.4833,-16.37421 -21.0536,-41.4299 -21.0536,-66.2898 0,-24.8599 5.5703,-49.89602 21.0556,-66.270235 15.4833,-16.29589 39.3936,-22.12466 63.0063,-22.12466 23.6323,0 47.4428,5.82877 62.9281,22.12466 15.5812,16.374215 21.1535,41.410335 21.1535,66.270235 z m 26.0307,-145.208295 h 38.681 V 253.59178 h -38.681 z m 104.681,139.894455 63.4626,93.80662 h -47.9792 l -63.443,-93.80466 63.443,-75.212125 h 47.9792 l -63.443,75.210165 z"
     fill="#4f6bfe"
     p-id="4327"
     id="path1"
     inkscape:export-filename="path1.svg"
     inkscape:export-xdpi="96"
     inkscape:export-ydpi="96" />
</svg>
